<svg width="20" height="20" viewBox="0 0 20 20" fill="none" xmlns="http://www.w3.org/2000/svg">
<path d="M4.16667 6.66634V12.6663C4.16667 14.552 4.16667 15.4948 4.75245 16.0806C5.33824 16.6663 6.28105 16.6663 8.16667 16.6663H11.8333C13.719 16.6663 14.6618 16.6663 15.2475 16.0806C15.8333 15.4948 15.8333 14.552 15.8333 12.6663V6.66634M4.16667 6.66634H15.8333M4.16667 6.66634H2.80303C2.707 6.66634 2.65898 6.66634 2.62127 6.65019C2.57402 6.62996 2.53638 6.59232 2.51615 6.54507C2.5 6.50736 2.5 6.45934 2.5 6.36331V6.36331C2.5 5.40297 2.5 4.9228 2.66148 4.54571C2.8638 4.07325 3.24024 3.69681 3.7127 3.49449C4.08979 3.33301 4.56996 3.33301 5.5303 3.33301H14.4697C15.43 3.33301 15.9102 3.33301 16.2873 3.49449C16.7598 3.69681 17.1362 4.07325 17.3385 4.54571C17.5 4.9228 17.5 5.40297 17.5 6.36331V6.36331C17.5 6.45934 17.5 6.50736 17.4839 6.54507C17.4636 6.59232 17.426 6.62996 17.3787 6.65019C17.341 6.66634 17.293 6.66634 17.197 6.66634H15.8333" stroke="#2A6AA6"/>
<path d="M8.3335 13.333H11.6668" stroke="#2A6AA6" stroke-linecap="round"/>
</svg>
